<svg width="24" height="24" viewBox="0 0 24 24" fill="none" xmlns="http://www.w3.org/2000/svg">
<path d="M15 9.00009L8.99997 15.0001M15 15.0001H14.99M9.00997 9.00009H8.99997M7.69197 19.6161C8.28197 19.6161 8.57797 19.6161 8.84697 19.7161C8.88497 19.7301 8.92197 19.7454 8.95797 19.7621C9.21897 19.8821 9.42797 20.0901 9.84597 20.5081C10.808 21.4701 11.289 21.9511 11.88 21.9961C11.96 22.0021 12.04 22.0021 12.12 21.9961C12.711 21.9511 13.192 21.4701 14.154 20.5081C14.572 20.0901 14.781 19.8821 15.042 19.7621C15.078 19.7454 15.1146 19.7301 15.152 19.7161C15.422 19.6161 15.717 19.6161 16.308 19.6161H16.418C17.925 19.6161 18.679 19.6161 19.148 19.1481C19.617 18.6801 19.616 17.9251 19.616 16.4181V16.3081C19.616 15.7181 19.616 15.4221 19.716 15.1531C19.73 15.1151 19.7453 15.0781 19.762 15.0421C19.882 14.7811 20.09 14.5721 20.508 14.1541C21.47 13.1921 21.951 12.7111 21.996 12.1201C22.002 12.0401 22.002 11.9601 21.996 11.8801C21.951 11.2891 21.47 10.8081 20.508 9.84609C20.09 9.42809 19.882 9.21909 19.762 8.95809L19.716 8.84809C19.616 8.57809 19.616 8.28309 19.616 7.69209V7.58209C19.616 6.07509 19.616 5.32109 19.148 4.85209C18.68 4.38309 17.925 4.38409 16.418 4.38409H16.308C15.718 4.38409 15.422 4.38409 15.153 4.28409L15.042 4.23809C14.781 4.11809 14.572 3.91009 14.154 3.49209C13.192 2.53009 12.711 2.04909 12.12 2.00409C12.04 1.99929 11.9599 1.99929 11.88 2.00409C11.289 2.04909 10.808 2.53009 9.84597 3.49209C9.42797 3.91009 9.21897 4.11909 8.95797 4.23809L8.84797 4.28409C8.57797 4.38409 8.28297 4.38409 7.69197 4.38409H7.58197C6.07497 4.38409 5.32097 4.38409 4.85197 4.85209C4.38297 5.32009 4.38397 6.07509 4.38397 7.58209V7.69209C4.38397 8.28209 4.38397 8.57809 4.28397 8.84709C4.2693 8.88509 4.25397 8.92209 4.23797 8.95809C4.11797 9.21909 3.90997 9.42809 3.49197 9.84609C2.52997 10.8081 2.04897 11.2891 2.00397 11.8801C1.99917 11.96 1.99917 12.0402 2.00397 12.1201C2.04897 12.7111 2.52997 13.1921 3.49197 14.1541C3.90997 14.5721 4.11897 14.7811 4.23797 15.0421C4.25464 15.0781 4.26997 15.1148 4.28397 15.1521C4.38397 15.4221 4.38397 15.7171 4.38397 16.3081V16.4181C4.38397 17.9251 4.38397 18.6791 4.85197 19.1481C5.31997 19.6171 6.07497 19.6161 7.58197 19.6161H7.69197Z" stroke="#F1F1F1" stroke-width="1.5" stroke-linecap="round" stroke-linejoin="round"/>
</svg>
