<svg width="18" height="19" viewBox="0 0 18 19" fill="none" xmlns="http://www.w3.org/2000/svg">
<path d="M15.1875 12.9543V10.625C15.1875 10.3266 15.069 10.0405 14.858 9.8295C14.647 9.61853 14.3609 9.5 14.0625 9.5H9.56251V7.25H10.6875C10.9859 7.25 11.272 7.13147 11.483 6.9205C11.694 6.70952 11.8125 6.42337 11.8125 6.125V2.75C11.8125 2.45163 11.694 2.16548 11.483 1.9545C11.272 1.74353 10.9859 1.625 10.6875 1.625H7.31251C7.01414 1.625 6.72799 1.74353 6.51701 1.9545C6.30603 2.16548 6.18751 2.45163 6.18751 2.75V6.125C6.18751 6.42337 6.30603 6.70952 6.51701 6.9205C6.72799 7.13147 7.01414 7.25 7.31251 7.25H8.43751V9.5H3.93751C3.63914 9.5 3.35299 9.61853 3.14201 9.8295C2.93103 10.0405 2.81251 10.3266 2.81251 10.625V12.9549C2.28226 13.0918 1.82015 13.4174 1.51279 13.8706C1.20544 14.3239 1.07393 14.8737 1.14294 15.4169C1.21194 15.9602 1.47671 16.4597 1.88762 16.8217C2.29853 17.1837 2.82737 17.3834 3.37501 17.3834C3.92264 17.3834 4.45148 17.1837 4.86239 16.8217C5.2733 16.4597 5.53807 15.9602 5.60707 15.4169C5.67608 14.8737 5.54458 14.3239 5.23722 13.8706C4.92986 13.4174 4.46775 13.0918 3.93751 12.9549V10.625H8.43751V12.9549C7.90726 13.0918 7.44515 13.4174 7.13779 13.8706C6.83043 14.3239 6.69893 14.8737 6.76794 15.4169C6.83694 15.9602 7.10171 16.4597 7.51262 16.8217C7.92353 17.1837 8.45237 17.3834 9.00001 17.3834C9.54764 17.3834 10.0765 17.1837 10.4874 16.8217C10.8983 16.4597 11.1631 15.9602 11.2321 15.4169C11.3011 14.8737 11.1696 14.3239 10.8622 13.8706C10.5549 13.4174 10.0928 13.0918 9.56251 12.9549V10.625H14.0625V12.9543C13.5323 13.0912 13.0701 13.4168 12.7628 13.8701C12.4554 14.3233 12.3239 14.8731 12.3929 15.4164C12.4619 15.9596 12.7267 16.4591 13.1376 16.8211C13.5485 17.1831 14.0774 17.3829 14.625 17.3829C15.1726 17.3829 15.7015 17.1831 16.1124 16.8211C16.5233 16.4591 16.7881 15.9596 16.8571 15.4164C16.9261 14.8731 16.7946 14.3233 16.4872 13.8701C16.1799 13.4168 15.7178 13.0912 15.1875 12.9543ZM7.31251 2.75H10.6875L10.6881 6.125H7.31251V2.75ZM4.50001 15.125C4.50001 15.3475 4.43403 15.565 4.31041 15.75C4.18679 15.935 4.01109 16.0792 3.80552 16.1644C3.59996 16.2495 3.37376 16.2718 3.15553 16.2284C2.9373 16.185 2.73684 16.0778 2.57951 15.9205C2.42218 15.7632 2.31503 15.5627 2.27162 15.3445C2.22821 15.1262 2.25049 14.9 2.33564 14.6945C2.42079 14.4889 2.56498 14.3132 2.74999 14.1896C2.93499 14.066 3.1525 14 3.37501 14C3.67337 14 3.95952 14.1185 4.1705 14.3295C4.38148 14.5405 4.50001 14.8266 4.50001 15.125ZM10.125 15.125C10.125 15.3475 10.059 15.565 9.93541 15.75C9.81179 15.935 9.63609 16.0792 9.43052 16.1644C9.22496 16.2495 8.99876 16.2718 8.78053 16.2284C8.5623 16.185 8.36184 16.0778 8.20451 15.9205C8.04718 15.7632 7.94003 15.5627 7.89662 15.3445C7.85321 15.1262 7.87549 14.9 7.96064 14.6945C8.04579 14.4889 8.18998 14.3132 8.37499 14.1896C8.55999 14.066 8.7775 14 9.00001 14C9.29824 14.0004 9.58413 14.1191 9.79501 14.33C10.0059 14.5409 10.1246 14.8268 10.125 15.125ZM14.625 16.25C14.4025 16.25 14.185 16.184 14 16.0604C13.815 15.9368 13.6708 15.7611 13.5856 15.5555C13.5005 15.35 13.4782 15.1238 13.5216 14.9055C13.565 14.6873 13.6722 14.4868 13.8295 14.3295C13.9868 14.1722 14.1873 14.065 14.4055 14.0216C14.6238 13.9782 14.85 14.0005 15.0555 14.0856C15.2611 14.1708 15.4368 14.315 15.5604 14.5C15.684 14.685 15.75 14.9025 15.75 15.125C15.75 15.4234 15.6315 15.7095 15.4205 15.9205C15.2095 16.1315 14.9234 16.25 14.625 16.25Z" fill="#F1F1F1"/>
</svg>
