<svg width="24" height="25" viewBox="0 0 24 25" fill="none" xmlns="http://www.w3.org/2000/svg">
<path d="M2 11.5715L4.807 8.41447C5.18228 7.99216 5.64276 7.65413 6.15812 7.42265C6.67348 7.19116 7.23204 7.07148 7.797 7.07147H8M2 20.0715H7.5L11.5 17.0715C11.5 17.0715 12.31 16.5245 13.5 15.5715C16 13.5715 13.5 10.4055 11 12.0715C8.964 13.4285 7 14.5715 7 14.5715" stroke="#F1F1F1" stroke-width="1.5" stroke-linecap="round" stroke-linejoin="round"/>
<path d="M8 14.0715V7.57147C8 7.04104 8.21071 6.53233 8.58579 6.15726C8.96086 5.78219 9.46957 5.57147 10 5.57147H20C20.5304 5.57147 21.0391 5.78219 21.4142 6.15726C21.7893 6.53233 22 7.04104 22 7.57147V13.5715C22 14.1019 21.7893 14.6106 21.4142 14.9857C21.0391 15.3608 20.5304 15.5715 20 15.5715H13.5" stroke="#F1F1F1" stroke-width="1.5"/>
<path d="M19.5 10.5815L19.51 10.5705M10.5 10.5815L10.51 10.5705M15 12.5715C14.4696 12.5715 13.9609 12.3608 13.5858 11.9857C13.2107 11.6106 13 11.1019 13 10.5715C13 10.041 13.2107 9.53233 13.5858 9.15726C13.9609 8.78219 14.4696 8.57147 15 8.57147C15.5304 8.57147 16.0391 8.78219 16.4142 9.15726C16.7893 9.53233 17 10.041 17 10.5715C17 11.1019 16.7893 11.6106 16.4142 11.9857C16.0391 12.3608 15.5304 12.5715 15 12.5715Z" stroke="#F1F1F1" stroke-width="1.5" stroke-linecap="round" stroke-linejoin="round"/>
</svg>
