<svg width="24" height="25" viewBox="0 0 24 25" fill="none" xmlns="http://www.w3.org/2000/svg">
<g clip-path="url(#clip0_12_444)">
<path fill-rule="evenodd" clip-rule="evenodd" d="M16.53 6.51218V8.85218L18.03 7.36718V4.60718L17.28 3.85718H3.78L3.03 4.60718V5.33618L3 5.35718V20.7922L3.54 21.4822L11.04 24.0622L12 23.3572V21.8572H17.28L18.03 21.1072V18.3922L16.53 16.8922V20.3572H12V7.92218L11.505 7.23218L6.054 5.35718H16.53V6.51218ZM10.5 22.2772L4.5 20.2672V6.43718L10.5 8.44718V22.2772ZM20.28 13.5772H12.825V12.0772H20.22L17.82 9.67718L18.885 8.62718L22.59 12.3172V13.3822L18.855 17.1022L17.805 16.0522L20.28 13.5772Z" fill="#F1F1F1"/>
</g>
<defs>
<clipPath id="clip0_12_444">
<rect width="24" height="24" fill="white" transform="translate(0 0.857178)"/>
</clipPath>
</defs>
</svg>
