<svg width="24" height="25" viewBox="0 0 24 25" fill="none" xmlns="http://www.w3.org/2000/svg">
<path d="M15 7.71426H9M15 11.7143H9M15 15.7143H11M5 3.71426H19V21.7143L17.968 20.8303C17.6055 20.5196 17.1439 20.3488 16.6665 20.3488C16.1891 20.3488 15.7275 20.5196 15.365 20.8303L14.333 21.7143L13.302 20.8303C12.9395 20.5193 12.4776 20.3484 12 20.3484C11.5224 20.3484 11.0605 20.5193 10.698 20.8303L9.667 21.7143L8.635 20.8303C8.27253 20.5196 7.81088 20.3488 7.3335 20.3488C6.85611 20.3488 6.39447 20.5196 6.032 20.8303L5 21.7143V3.71426Z" stroke="#F1F1F1" stroke-width="1.5" stroke-linecap="round" stroke-linejoin="round"/>
</svg>
