<svg width="18" height="19" viewBox="0 0 18 19" fill="none" xmlns="http://www.w3.org/2000/svg">
<path d="M8.215 8.77356C7.52277 8.77356 6.84608 8.56829 6.2705 8.1837C5.69493 7.79912 5.24633 7.25249 4.98142 6.61295C4.71651 5.97341 4.6472 5.26968 4.78225 4.59074C4.9173 3.91181 5.25064 3.28817 5.74013 2.79869C6.22961 2.3092 6.85325 1.97586 7.53218 1.84081C8.21112 1.70576 8.91485 1.77508 9.55439 2.03998C10.1939 2.30489 10.7406 2.75349 11.1251 3.32907C11.5097 3.90464 11.715 4.58133 11.715 5.27356C11.715 6.20182 11.3463 7.09206 10.6899 7.74844C10.0335 8.40481 9.14326 8.77356 8.215 8.77356ZM8.215 2.81356C7.72055 2.81356 7.2372 2.96018 6.82607 3.23489C6.41495 3.50959 6.09452 3.90004 5.9053 4.35685C5.71608 4.81367 5.66657 5.31633 5.76304 5.80129C5.8595 6.28624 6.0976 6.7317 6.44723 7.08133C6.79686 7.43096 7.24232 7.66906 7.72727 7.76552C8.21223 7.86199 8.71489 7.81248 9.17171 7.62326C9.62852 7.43404 10.019 7.11361 10.2937 6.70249C10.5684 6.29136 10.715 5.80801 10.715 5.31356C10.715 4.98526 10.6503 4.66017 10.5247 4.35685C10.3991 4.05354 10.2149 3.77794 9.98277 3.54579C9.75062 3.31365 9.47502 3.1295 9.17171 3.00386C8.86839 2.87823 8.5433 2.81356 8.215 2.81356ZM11 9.37856C8.29423 8.76933 5.46341 9.0626 2.94 10.2136C2.59295 10.3793 2.30013 10.6403 2.09565 10.9661C1.89117 11.2918 1.78344 11.669 1.785 12.0536V15.0286C1.785 15.0942 1.79793 15.1592 1.82306 15.2199C1.84819 15.2806 1.88502 15.3357 1.93145 15.3821C1.97788 15.4285 2.03299 15.4654 2.09366 15.4905C2.15432 15.5156 2.21934 15.5286 2.285 15.5286C2.35066 15.5286 2.41568 15.5156 2.47634 15.4905C2.537 15.4654 2.59212 15.4285 2.63855 15.3821C2.68498 15.3357 2.72181 15.2806 2.74694 15.2199C2.77207 15.1592 2.785 15.0942 2.785 15.0286V12.0536C2.78065 11.8589 2.83321 11.6672 2.93624 11.502C3.03927 11.3368 3.18828 11.2053 3.365 11.1236C4.88508 10.4215 6.54064 10.0614 8.215 10.0686C9.15315 10.0675 10.0881 10.1782 11 10.3986V9.37856ZM11.07 14.1336H14.14V14.8336H11.07V14.1336Z" fill="#F1F1F1"/>
<path d="M16.585 11.1636H14V12.1636H16.085V16.3486H9V12.1636H12.15V12.3736C12.15 12.5062 12.2027 12.6333 12.2964 12.7271C12.3902 12.8209 12.5174 12.8736 12.65 12.8736C12.7826 12.8736 12.9098 12.8209 13.0036 12.7271C13.0973 12.6333 13.15 12.5062 13.15 12.3736V10.4286C13.15 10.296 13.0973 10.1688 13.0036 10.075C12.9098 9.98124 12.7826 9.92856 12.65 9.92856C12.5174 9.92856 12.3902 9.98124 12.2964 10.075C12.2027 10.1688 12.15 10.296 12.15 10.4286V11.1636H8.5C8.36739 11.1636 8.24021 11.2162 8.14645 11.31C8.05268 11.4038 8 11.5309 8 11.6636V16.8486C8 16.9812 8.05268 17.1083 8.14645 17.2021C8.24021 17.2959 8.36739 17.3486 8.5 17.3486H16.585C16.7176 17.3486 16.8448 17.2959 16.9386 17.2021C17.0323 17.1083 17.085 16.9812 17.085 16.8486V11.6636C17.085 11.5309 17.0323 11.4038 16.9386 11.31C16.8448 11.2162 16.7176 11.1636 16.585 11.1636Z" fill="#F1F1F1"/>
</svg>
