<svg width="24" height="25" viewBox="0 0 24 25" fill="none" xmlns="http://www.w3.org/2000/svg">
<path d="M8.616 20.8572C8.17133 20.8572 7.791 20.6989 7.475 20.3822C7.159 20.0655 7.00067 19.6859 7 19.2432V16.8572H5.192C4.748 16.8572 4.368 16.6989 4.052 16.3822C3.736 16.0655 3.57767 15.6855 3.577 15.2422V11.4722C3.577 10.9055 3.76933 10.4309 4.154 10.0482C4.53867 9.66419 5.013 9.47219 5.577 9.47219H18.423C18.9897 9.47219 19.4647 9.66419 19.848 10.0482C20.2313 10.4322 20.423 10.9069 20.423 11.4722V15.2422C20.423 15.6862 20.265 16.0662 19.949 16.3822C19.633 16.6982 19.2527 16.8565 18.808 16.8572H17V19.2422C17 19.6862 16.8417 20.0662 16.525 20.3822C16.2083 20.6982 15.8283 20.8565 15.385 20.8572H8.616ZM5.192 15.8572H7C7.026 15.4352 7.19333 15.0732 7.502 14.7712C7.81067 14.4699 8.182 14.3192 8.616 14.3192H15.385C15.8183 14.3192 16.1893 14.4702 16.498 14.7722C16.8067 15.0735 16.974 15.4352 17 15.8572H18.808C18.9873 15.8572 19.1347 15.7995 19.25 15.6842C19.3653 15.5689 19.423 15.4215 19.423 15.2422V11.4722C19.423 11.1895 19.3273 10.9522 19.136 10.7602C18.9447 10.5682 18.707 10.4722 18.423 10.4722H5.577C5.29367 10.4722 5.05633 10.5682 4.865 10.7602C4.67367 10.9522 4.57767 11.1899 4.577 11.4732V15.2422C4.577 15.4215 4.63467 15.5689 4.75 15.6842C4.86533 15.7995 5.01267 15.8572 5.192 15.8572ZM16 9.47319V7.08719C16 6.90719 15.9423 6.75986 15.827 6.64519C15.7117 6.52986 15.5643 6.47219 15.385 6.47219H8.615C8.43567 6.47219 8.28833 6.52986 8.173 6.64519C8.05767 6.76052 8 6.90786 8 7.08719V9.47219H7V7.08719C7 6.64319 7.15833 6.26286 7.475 5.94619C7.791 5.62953 8.171 5.47119 8.615 5.47119H15.385C15.829 5.47119 16.209 5.62953 16.525 5.94619C16.8417 6.26286 17 6.64286 17 7.08619V9.47219L16 9.47319ZM17.616 12.9732C17.8993 12.9732 18.1367 12.8772 18.328 12.6852C18.5193 12.4932 18.6153 12.2559 18.616 11.9732C18.6167 11.6905 18.5207 11.4529 18.328 11.2602C18.1353 11.0675 17.898 10.9715 17.616 10.9722C17.334 10.9729 17.0963 11.0689 16.903 11.2602C16.7097 11.4515 16.614 11.6892 16.616 11.9732C16.618 12.2572 16.7137 12.4945 16.903 12.6852C17.0923 12.8759 17.33 12.9719 17.616 12.9732ZM16 19.2412V15.9342C16 15.7542 15.9423 15.6065 15.827 15.4912C15.7117 15.3759 15.5643 15.3182 15.385 15.3182H8.615C8.43567 15.3182 8.28833 15.3759 8.173 15.4912C8.05767 15.6072 8 15.7549 8 15.9342V19.2422C8 19.4215 8.05767 19.5689 8.173 19.6842C8.28833 19.7995 8.436 19.8572 8.616 19.8572H15.385C15.5643 19.8572 15.7117 19.7995 15.827 19.6842C15.9423 19.5689 16 19.4212 16 19.2412ZM5.192 10.4732H4.577H19.423H5.192Z" fill="#F1F1F1"/>
</svg>
