<svg width="24" height="25" viewBox="0 0 24 25" fill="none" xmlns="http://www.w3.org/2000/svg">
<path d="M21.5625 18.9092V22.7858C21.5625 22.935 21.5032 23.078 21.3977 23.1835C21.2923 23.289 21.1492 23.3483 21 23.3483C20.8508 23.3483 20.7077 23.289 20.6023 23.1835C20.4968 23.078 20.4375 22.935 20.4375 22.7858V18.9092C20.4342 17.8497 20.1973 16.8041 19.7435 15.8467C19.2898 14.8893 18.6305 14.0438 17.8125 13.3705V19.2523C17.8118 19.3729 17.7723 19.49 17.7 19.5864C17.6277 19.6829 17.5263 19.7535 17.4107 19.788C17.2952 19.8224 17.1717 19.8188 17.0584 19.7778C16.945 19.7367 16.8479 19.6603 16.7812 19.5598L15.78 18.0317C15.7742 18.0229 15.7689 18.0139 15.7641 18.0045C15.5916 17.702 15.3061 17.4805 14.9703 17.3885C14.6345 17.2966 14.2759 17.3418 13.9734 17.5142C13.671 17.6866 13.4494 17.9722 13.3574 18.308C13.2655 18.6438 13.3107 19.0024 13.4831 19.3048L15.5625 22.4773C15.6323 22.6014 15.6523 22.7474 15.6187 22.8858C15.5851 23.0241 15.5003 23.1446 15.3813 23.2228C15.2624 23.3011 15.1182 23.3313 14.9778 23.3075C14.8375 23.2836 14.7114 23.2074 14.625 23.0942L12.5381 19.9067C12.5325 19.8973 12.5269 19.8889 12.5222 19.8795C12.2304 19.3293 12.1603 18.6883 12.3262 18.088C12.4922 17.4878 12.8816 16.9738 13.4146 16.6516C13.9475 16.3294 14.5836 16.2234 15.1922 16.3554C15.8009 16.4874 16.3359 16.8474 16.6875 17.3614V6.28577C16.6875 6.23604 16.6677 6.18835 16.6326 6.15318C16.5974 6.11802 16.5497 6.09827 16.5 6.09827H15C14.8508 6.09827 14.7077 6.039 14.6023 5.93351C14.4968 5.82802 14.4375 5.68495 14.4375 5.53577C14.4375 5.38658 14.4968 5.24351 14.6023 5.13802C14.7077 5.03253 14.8508 4.97327 15 4.97327H16.5C16.8481 4.97327 17.1819 5.11155 17.4281 5.35769C17.6742 5.60383 17.8125 5.93767 17.8125 6.28577V11.9755C18.9613 12.7319 19.905 13.761 20.5593 14.9708C21.2136 16.1807 21.5583 17.5337 21.5625 18.9092ZM8.0625 5.53577C8.0625 5.38658 8.00324 5.24351 7.89775 5.13802C7.79226 5.03253 7.64918 4.97327 7.5 4.97327H6C5.6519 4.97327 5.31806 5.11155 5.07192 5.35769C4.82578 5.60383 4.6875 5.93767 4.6875 6.28577V19.0358C4.6875 19.185 4.74676 19.328 4.85225 19.4335C4.95774 19.539 5.10082 19.5983 5.25 19.5983C5.39918 19.5983 5.54226 19.539 5.64775 19.4335C5.75324 19.328 5.8125 19.185 5.8125 19.0358V6.28577C5.8125 6.23604 5.83225 6.18835 5.86742 6.15318C5.90258 6.11802 5.95027 6.09827 6 6.09827H7.5C7.64918 6.09827 7.79226 6.039 7.89775 5.93351C8.00324 5.82802 8.0625 5.68495 8.0625 5.53577ZM14.6475 9.63827C14.542 9.53293 14.3991 9.47376 14.25 9.47376C14.1009 9.47376 13.958 9.53293 13.8525 9.63827L11.8125 11.6773V1.78577C11.8125 1.63658 11.7532 1.49351 11.6477 1.38802C11.5423 1.28253 11.3992 1.22327 11.25 1.22327C11.1008 1.22327 10.9577 1.28253 10.8523 1.38802C10.7468 1.49351 10.6875 1.63658 10.6875 1.78577V11.6773L8.6475 9.63827C8.54087 9.53891 8.39983 9.48481 8.25411 9.48738C8.10838 9.48996 7.96934 9.54899 7.86628 9.65205C7.76322 9.75511 7.70419 9.89415 7.70162 10.0399C7.69905 10.1856 7.75314 10.3266 7.8525 10.4333L10.8525 13.4333C10.958 13.5386 11.1009 13.5978 11.25 13.5978C11.3991 13.5978 11.542 13.5386 11.6475 13.4333L14.6475 10.4333C14.7528 10.3278 14.812 10.1848 14.812 10.0358C14.812 9.8867 14.7528 9.74374 14.6475 9.63827Z" fill="#F1F1F1"/>
</svg>
