<svg width="24" height="24" viewBox="0 0 24 24" fill="none" xmlns="http://www.w3.org/2000/svg">
<path fill-rule="evenodd" clip-rule="evenodd" d="M10.594 2.31903C11.033 2.10917 11.5134 2.00024 12 2.00024C12.4866 2.00024 12.967 2.10917 13.406 2.31903C13.793 2.50403 14.146 2.80603 14.637 3.22403L14.715 3.29003C14.953 3.49303 15.028 3.55503 15.104 3.60603C15.297 3.73603 15.514 3.82503 15.741 3.87003C15.831 3.88803 15.928 3.89703 16.24 3.92103L16.341 3.92903C16.983 3.98003 17.447 4.01703 17.851 4.15903C18.3099 4.32165 18.7267 4.58471 19.071 4.92899C19.4153 5.27328 19.6784 5.6901 19.841 6.14903C19.983 6.55303 20.019 7.01703 20.071 7.65903L20.079 7.76003C20.103 8.07203 20.112 8.17003 20.13 8.25903C20.175 8.48703 20.265 8.70403 20.394 8.89703C20.445 8.97203 20.507 9.04703 20.71 9.28503L20.776 9.36303C21.195 9.85303 21.496 10.207 21.681 10.593C22.106 11.483 22.106 12.517 21.681 13.406C21.497 13.793 21.195 14.146 20.776 14.637L20.71 14.715C20.5982 14.8393 20.4928 14.9692 20.394 15.104C20.264 15.297 20.175 15.514 20.13 15.741C20.112 15.831 20.104 15.928 20.079 16.24L20.07 16.341C20.02 16.983 19.983 17.447 19.84 17.851C19.6781 18.3102 19.4154 18.7273 19.0712 19.0716C18.727 19.416 18.3101 19.6789 17.851 19.841C17.447 19.983 16.983 20.019 16.341 20.071L16.24 20.079C16.0729 20.0877 15.9064 20.1047 15.741 20.13C15.5136 20.1762 15.2973 20.2658 15.104 20.394C14.9688 20.4928 14.8386 20.5982 14.714 20.71L14.637 20.776C14.147 21.195 13.793 21.496 13.407 21.681C12.9679 21.891 12.4873 22 12.0005 22C11.5137 22 11.0331 21.891 10.594 21.681C10.207 21.497 9.854 21.195 9.363 20.776L9.285 20.71C9.16102 20.5983 9.03153 20.4928 8.897 20.394C8.70336 20.2657 8.48671 20.176 8.259 20.13C8.09362 20.1047 7.92708 20.0877 7.76 20.079L7.659 20.07C7.017 20.02 6.553 19.983 6.149 19.84C5.68982 19.6781 5.27274 19.4155 4.92838 19.0713C4.58401 18.7271 4.32112 18.3101 4.159 17.851C4.017 17.447 3.98 16.983 3.929 16.341L3.921 16.24C3.91236 16.0729 3.89534 15.9064 3.87 15.741C3.82387 15.5137 3.73423 15.2974 3.606 15.104C3.50726 14.9688 3.4018 14.8387 3.29 14.714L3.224 14.637C2.806 14.147 2.504 13.793 2.319 13.407C2.10899 12.9679 1.99998 12.4873 1.99998 12.0005C1.99998 11.5138 2.10899 11.0332 2.319 10.594C2.504 10.207 2.806 9.85403 3.224 9.36303L3.29 9.28503C3.40174 9.16105 3.50721 9.03155 3.606 8.89703C3.736 8.70403 3.825 8.48703 3.87 8.25903C3.888 8.16903 3.897 8.07203 3.921 7.76003L3.929 7.65903C3.98 7.01703 4.017 6.55303 4.159 6.14903C4.32099 5.68975 4.58383 5.2726 4.9282 4.92823C5.27257 4.58386 5.68972 4.32102 6.149 4.15903C6.553 4.01703 7.017 3.98003 7.659 3.92903L7.76 3.92103C7.92708 3.91239 8.09362 3.89536 8.259 3.87003C8.487 3.82503 8.704 3.73503 8.897 3.60603C8.972 3.55503 9.047 3.49303 9.285 3.29003L9.363 3.22403C9.853 2.80603 10.208 2.50403 10.594 2.31903ZM12.756 3.67703C12.5195 3.56437 12.2609 3.50591 11.999 3.50591C11.7371 3.50591 11.4785 3.56437 11.242 3.67703C11.057 3.76503 10.862 3.92403 10.261 4.43503L10.231 4.46003C10.034 4.62803 9.891 4.75103 9.734 4.85603C9.375 5.09603 8.973 5.26303 8.549 5.34603C8.364 5.38303 8.176 5.39803 7.917 5.41903L7.879 5.42203C7.092 5.48503 6.843 5.51103 6.649 5.57903C6.149 5.75603 5.755 6.14903 5.579 6.65003C5.509 6.84403 5.484 7.09303 5.421 7.88003L5.418 7.91803C5.398 8.17703 5.382 8.36503 5.346 8.55003C5.262 8.97403 5.096 9.37603 4.856 9.73503C4.75 9.89203 4.627 10.035 4.459 10.233L4.434 10.262C3.923 10.862 3.764 11.058 3.676 11.242C3.56319 11.4786 3.50465 11.7374 3.50465 11.9995C3.50465 12.2616 3.56319 12.5204 3.676 12.757C3.764 12.942 3.923 13.137 4.434 13.738L4.459 13.768C4.627 13.965 4.75 14.108 4.855 14.265C5.095 14.624 5.262 15.026 5.345 15.45C5.382 15.635 5.397 15.823 5.418 16.082L5.421 16.12C5.484 16.907 5.51 17.156 5.578 17.35C5.755 17.85 6.148 18.244 6.649 18.42C6.843 18.49 7.092 18.515 7.879 18.578L7.917 18.581C8.176 18.601 8.364 18.617 8.549 18.653C8.973 18.737 9.375 18.903 9.734 19.143C9.891 19.249 10.034 19.372 10.232 19.54L10.261 19.565C10.861 20.076 11.057 20.235 11.241 20.323C11.4776 20.4358 11.7364 20.4944 11.9985 20.4944C12.2606 20.4944 12.5194 20.4358 12.756 20.323C12.941 20.235 13.136 20.076 13.737 19.565L13.767 19.54C13.964 19.372 14.107 19.249 14.264 19.144C14.623 18.904 15.025 18.737 15.449 18.654C15.6582 18.6185 15.8692 18.5942 16.081 18.581L16.119 18.578C16.906 18.515 17.155 18.489 17.349 18.421C17.849 18.244 18.243 17.851 18.419 17.35C18.489 17.156 18.514 16.906 18.577 16.12L18.58 16.082C18.5928 15.8699 18.6168 15.6586 18.652 15.449C18.736 15.026 18.902 14.624 19.142 14.265C19.248 14.108 19.371 13.965 19.539 13.767L19.564 13.738C20.075 13.138 20.234 12.942 20.322 12.758C20.4348 12.5214 20.4934 12.2626 20.4934 12.0005C20.4934 11.7384 20.4348 11.4796 20.322 11.243C20.234 11.058 20.075 10.863 19.564 10.262L19.539 10.232C19.371 10.035 19.248 9.89203 19.143 9.73503C18.9038 9.37586 18.7373 8.97327 18.653 8.55003C18.6175 8.3408 18.5931 8.12984 18.58 7.91803L18.577 7.88003C18.514 7.09303 18.488 6.84403 18.42 6.65003C18.243 6.15003 17.85 5.75603 17.349 5.58003C17.155 5.51003 16.905 5.48503 16.119 5.42203L16.081 5.41903C15.8689 5.40625 15.6576 5.38222 15.448 5.34703C15.0251 5.26262 14.6229 5.09615 14.264 4.85703C14.107 4.75103 13.964 4.62803 13.766 4.46003L13.737 4.43503C13.137 3.92403 12.941 3.76503 12.757 3.67703" fill="#F1F1F1"/>
<path fill-rule="evenodd" clip-rule="evenodd" d="M15.543 8.45702C15.6129 8.52695 15.6684 8.60996 15.7063 8.70133C15.7441 8.7927 15.7636 8.89063 15.7636 8.98952C15.7636 9.08842 15.7441 9.18635 15.7063 9.27772C15.6684 9.36908 15.6129 9.4521 15.543 9.52202L9.522 15.542C9.37962 15.6769 9.19024 15.7509 8.99413 15.7483C8.79803 15.7457 8.61068 15.6667 8.47193 15.5281C8.33319 15.3895 8.254 15.2022 8.25121 15.0061C8.24842 14.81 8.32225 14.6205 8.457 14.478L14.478 8.45802C14.5479 8.38809 14.6309 8.33261 14.7223 8.29476C14.8137 8.25691 14.9116 8.23743 15.0105 8.23743C15.1094 8.23743 15.2073 8.25691 15.2987 8.29476C15.3901 8.33261 15.4731 8.38809 15.543 8.45802" fill="#F1F1F1"/>
<path d="M15.512 14.509C15.5162 14.6434 15.4934 14.7774 15.4449 14.9028C15.3964 15.0283 15.3232 15.1427 15.2295 15.2393C15.1359 15.3359 15.0239 15.4127 14.9 15.4652C14.7762 15.5176 14.643 15.5447 14.5085 15.5447C14.374 15.5447 14.2408 15.5176 14.117 15.4652C13.9931 15.4127 13.8811 15.3359 13.7875 15.2393C13.6938 15.1427 13.6206 15.0283 13.5721 14.9028C13.5236 14.7774 13.5008 14.6434 13.505 14.509C13.5132 14.2483 13.6226 14.0011 13.8099 13.8196C13.9971 13.6382 14.2477 13.5367 14.5085 13.5367C14.7693 13.5367 15.0198 13.6382 15.2071 13.8196C15.3944 14.0011 15.5038 14.2483 15.512 14.509ZM10.495 9.49099C10.4992 9.62544 10.4764 9.75937 10.4279 9.88483C10.3794 10.0103 10.3062 10.1247 10.2125 10.2213C10.1189 10.3179 10.0069 10.3947 9.88302 10.4472C9.75916 10.4996 9.62601 10.5267 9.4915 10.5267C9.35699 10.5267 9.22384 10.4996 9.09998 10.4472C8.97611 10.3947 8.86405 10.3179 8.77045 10.2213C8.67685 10.1247 8.60361 10.0103 8.55509 9.88483C8.50657 9.75937 8.48375 9.62544 8.488 9.49099C8.49623 9.23033 8.60556 8.9831 8.79286 8.80163C8.98015 8.62015 9.23071 8.51868 9.4915 8.51868C9.75229 8.51868 10.0028 8.62015 10.1901 8.80163C10.3774 8.9831 10.4868 9.23033 10.495 9.49099Z" fill="#F1F1F1"/>
</svg>
