<svg width="18" height="19" viewBox="0 0 18 19" fill="none" xmlns="http://www.w3.org/2000/svg">
<path d="M9 17.375L4.25475 11.7787C4.18882 11.6947 4.12356 11.6101 4.059 11.525C3.24884 10.457 2.811 9.15299 2.8125 7.8125C2.8125 6.17147 3.4644 4.59766 4.62478 3.43728C5.78516 2.2769 7.35898 1.625 9 1.625C10.641 1.625 12.2148 2.2769 13.3752 3.43728C14.5356 4.59766 15.1875 6.17147 15.1875 7.8125C15.1888 9.15235 14.7512 10.4557 13.9416 11.5233L13.941 11.525C13.941 11.525 13.7723 11.7466 13.7469 11.7764L9 17.375ZM4.95732 10.8472C4.95732 10.8472 5.08838 11.0204 5.11819 11.0576L9 15.6358L12.8869 11.0514C12.9116 11.0204 13.0433 10.8461 13.0438 10.8455C13.706 9.97315 14.0638 8.90771 14.0625 7.8125C14.0625 6.46984 13.5291 5.18217 12.5797 4.23277C11.6303 3.28337 10.3427 2.75 9 2.75C7.65734 2.75 6.36968 3.28337 5.42028 4.23277C4.47087 5.18217 3.9375 6.46984 3.9375 7.8125C3.93612 8.90842 4.29438 9.97452 4.95732 10.8472Z" fill="#F1F1F1"/>
<path d="M11.8125 10.625H10.6875V6.125H7.3125V10.625H6.1875V6.125C6.1875 5.82663 6.30603 5.54048 6.51701 5.32951C6.72798 5.11853 7.01413 5 7.3125 5H10.6875C10.9859 5 11.272 5.11853 11.483 5.32951C11.694 5.54048 11.8125 5.82663 11.8125 6.125V10.625Z" fill="#F1F1F1"/>
<path d="M8.4375 9.5H9.5625V10.625H8.4375V9.5ZM8.4375 7.25H9.5625V8.375H8.4375V7.25Z" fill="#F1F1F1"/>
</svg>
