<svg width="18" height="19" viewBox="0 0 18 19" fill="none" xmlns="http://www.w3.org/2000/svg">
<path d="M6 9.5C5.7875 9.5 5.6095 9.572 5.466 9.716C5.3225 9.86 5.2505 10.038 5.25 10.25V12.5C5.25 12.7125 5.322 12.8907 5.466 13.0347C5.61 13.1787 5.788 13.2505 6 13.25C6.212 13.2495 6.39025 13.1775 6.53475 13.034C6.67925 12.8905 6.751 12.7125 6.75 12.5V10.25C6.75 10.0375 6.678 9.8595 6.534 9.716C6.39 9.5725 6.212 9.5005 6 9.5ZM12 5.75C11.7875 5.75 11.6095 5.822 11.466 5.966C11.3225 6.11 11.2505 6.288 11.25 6.5V12.5C11.25 12.7125 11.322 12.8907 11.466 13.0347C11.61 13.1787 11.788 13.2505 12 13.25C12.212 13.2495 12.3902 13.1775 12.5347 13.034C12.6792 12.8905 12.751 12.7125 12.75 12.5V6.5C12.75 6.2875 12.678 6.1095 12.534 5.966C12.39 5.8225 12.212 5.7505 12 5.75ZM9 11C8.7875 11 8.6095 11.072 8.466 11.216C8.3225 11.36 8.2505 11.538 8.25 11.75V12.5C8.25 12.7125 8.322 12.8907 8.466 13.0347C8.61 13.1787 8.788 13.2505 9 13.25C9.212 13.2495 9.39025 13.1775 9.53475 13.034C9.67925 12.8905 9.751 12.7125 9.75 12.5V11.75C9.75 11.5375 9.678 11.3595 9.534 11.216C9.39 11.0725 9.212 11.0005 9 11ZM3.75 16.25C3.3375 16.25 2.9845 16.1033 2.691 15.8098C2.3975 15.5163 2.2505 15.163 2.25 14.75V4.25C2.25 3.8375 2.397 3.4845 2.691 3.191C2.985 2.8975 3.338 2.7505 3.75 2.75H14.25C14.6625 2.75 15.0158 2.897 15.3098 3.191C15.6038 3.485 15.7505 3.838 15.75 4.25V14.75C15.75 15.1625 15.6033 15.5158 15.3098 15.8098C15.0163 16.1038 14.663 16.2505 14.25 16.25H3.75ZM3.75 14.75H14.25V4.25H3.75V14.75ZM9 9.5C9.2125 9.5 9.39075 9.428 9.53475 9.284C9.67875 9.14 9.7505 8.962 9.75 8.75C9.7495 8.538 9.6775 8.36 9.534 8.216C9.3905 8.072 9.2125 8 9 8C8.7875 8 8.6095 8.072 8.466 8.216C8.3225 8.36 8.2505 8.538 8.25 8.75C8.2495 8.962 8.3215 9.14025 8.466 9.28475C8.6105 9.42925 8.7885 9.501 9 9.5Z" fill="#F1F1F1"/>
</svg>
