<svg width="24" height="25" viewBox="0 0 24 25" fill="none" xmlns="http://www.w3.org/2000/svg">
<path d="M8.4 3.14285H5.6C5.17565 3.14285 4.76869 3.31142 4.46863 3.61148C4.16857 3.91154 4 4.31851 4 4.74285V9.54285C4 9.75297 4.04139 9.96103 4.12179 10.1551C4.2022 10.3493 4.32006 10.5257 4.46863 10.6742C4.6172 10.8228 4.79359 10.9407 4.98771 11.0211C5.18183 11.1015 5.38988 11.1429 5.6 11.1429H8.4C8.61011 11.1429 8.81817 11.1015 9.01229 11.0211C9.20641 10.9407 9.3828 10.8228 9.53137 10.6742C9.67994 10.5257 9.7978 10.3493 9.87821 10.1551C9.95861 9.96103 10 9.75297 10 9.54285V4.74285C10 4.31851 9.83143 3.91154 9.53137 3.61148C9.23131 3.31142 8.82435 3.14285 8.4 3.14285ZM8.4 15.1429H5.6C5.17565 15.1429 4.76869 15.3114 4.46863 15.6115C4.16857 15.9115 4 16.3185 4 16.7429V19.5429C4 19.9672 4.16857 20.3742 4.46863 20.6742C4.76869 20.9743 5.17565 21.1429 5.6 21.1429H8.4C8.82435 21.1429 9.23131 20.9743 9.53137 20.6742C9.83143 20.3742 10 19.9672 10 19.5429V16.7429C10 16.3185 9.83143 15.9115 9.53137 15.6115C9.23131 15.3114 8.82435 15.1429 8.4 15.1429ZM18.4 3.14285H15.6C15.1757 3.14285 14.7687 3.31142 14.4686 3.61148C14.1686 3.91154 14 4.31851 14 4.74285V7.54285C14 7.9672 14.1686 8.37417 14.4686 8.67422C14.7687 8.97428 15.1757 9.14285 15.6 9.14285H18.4C18.8243 9.14285 19.2313 8.97428 19.5314 8.67422C19.8314 8.37417 20 7.9672 20 7.54285V4.74285C20 4.31851 19.8314 3.91154 19.5314 3.61148C19.2313 3.31142 18.8243 3.14285 18.4 3.14285ZM18.4 13.1429H15.6C15.1757 13.1429 14.7687 13.3114 14.4686 13.6115C14.1686 13.9115 14 14.3185 14 14.7429V19.5429C14 19.9672 14.1686 20.3742 14.4686 20.6742C14.7687 20.9743 15.1757 21.1429 15.6 21.1429H18.4C18.8243 21.1429 19.2313 20.9743 19.5314 20.6742C19.8314 20.3742 20 19.9672 20 19.5429V14.7429C20 14.3185 19.8314 13.9115 19.5314 13.6115C19.2313 13.3114 18.8243 13.1429 18.4 13.1429Z" stroke="#F1F1F1" stroke-width="1.5" stroke-miterlimit="10" stroke-linejoin="round"/>
</svg>
