<svg width="18" height="19" viewBox="0 0 18 19" fill="none" xmlns="http://www.w3.org/2000/svg">
<path d="M9 17.75C4.83225 16.8237 1.5 12.8915 1.5 8.75V4.25L9 1.25L16.5 4.25V8.75C16.5 12.893 13.1678 16.8237 9 17.75ZM3 5V8.75C3.04286 10.4841 3.65277 12.1564 4.73638 13.5109C5.82 14.8654 7.31761 15.8275 9 16.25C10.6824 15.8275 12.18 14.8654 13.2636 13.5109C14.3472 12.1564 14.9571 10.4841 15 8.75V5L9 2.75L3 5Z" fill="#F1F1F1"/>
<path d="M9 8.75C10.0355 8.75 10.875 7.91053 10.875 6.875C10.875 5.83947 10.0355 5 9 5C7.96447 5 7.125 5.83947 7.125 6.875C7.125 7.91053 7.96447 8.75 9 8.75Z" fill="#F1F1F1"/>
<path d="M5.25 11.75C5.61955 12.4238 6.16155 12.9872 6.82048 13.3825C7.47942 13.7779 8.23161 13.991 9 14C9.76839 13.991 10.5206 13.7779 11.1795 13.3825C11.8385 12.9872 12.3805 12.4238 12.75 11.75C12.7312 10.328 10.2435 9.5 9 9.5C7.74975 9.5 5.26875 10.328 5.25 11.75Z" fill="#F1F1F1"/>
</svg>
