<svg width="18" height="19" viewBox="0 0 18 19" fill="none" xmlns="http://www.w3.org/2000/svg">
<path d="M8.4375 11.75H5.0625C4.61495 11.75 4.18572 11.9278 3.86926 12.2443C3.55279 12.5607 3.375 12.9899 3.375 13.4375V14.5625H4.5V13.4375C4.5 13.2883 4.55926 13.1452 4.66475 13.0398C4.77024 12.9343 4.91332 12.875 5.0625 12.875H8.4375C8.58668 12.875 8.72976 12.9343 8.83525 13.0398C8.94074 13.1452 9 13.2883 9 13.4375V14.5625H10.125V13.4375C10.125 12.9899 9.94721 12.5607 9.63074 12.2443C9.31428 11.9278 8.88505 11.75 8.4375 11.75ZM6.75 11.1875C7.19501 11.1875 7.63002 11.0555 8.00003 10.8083C8.37004 10.5611 8.65843 10.2097 8.82873 9.79854C8.99903 9.3874 9.04358 8.93501 8.95677 8.49855C8.86995 8.06209 8.65566 7.66118 8.34099 7.34651C8.02632 7.03184 7.62541 6.81755 7.18895 6.73073C6.7525 6.64392 6.3001 6.68847 5.88896 6.85877C5.47783 7.02907 5.12643 7.31746 4.87919 7.68747C4.63196 8.05748 4.5 8.49249 4.5 8.9375C4.5 9.53424 4.73705 10.1065 5.15901 10.5285C5.58097 10.9504 6.15326 11.1875 6.75 11.1875ZM6.75 7.8125C6.9725 7.8125 7.19001 7.87848 7.37502 8.0021C7.56002 8.12571 7.70422 8.30142 7.78936 8.50698C7.87451 8.71255 7.89679 8.93875 7.85338 9.15698C7.80998 9.37521 7.70283 9.57566 7.5455 9.733C7.38816 9.89033 7.18771 9.99748 6.96948 10.0409C6.75125 10.0843 6.52505 10.062 6.31948 9.97687C6.11391 9.89172 5.93821 9.74752 5.8146 9.56252C5.69098 9.37751 5.625 9.16001 5.625 8.9375C5.625 8.63913 5.74353 8.35298 5.9545 8.14201C6.16548 7.93103 6.45163 7.8125 6.75 7.8125Z" fill="#F1F1F1"/>
<path d="M15.75 11.1875V16.25H2.25V5H9V3.875H2.25C1.95163 3.875 1.66548 3.99353 1.4545 4.2045C1.24353 4.41548 1.125 4.70163 1.125 5V16.25C1.125 16.5484 1.24353 16.8345 1.4545 17.0455C1.66548 17.2565 1.95163 17.375 2.25 17.375H15.75C16.0484 17.375 16.3345 17.2565 16.5455 17.0455C16.7565 16.8345 16.875 16.5484 16.875 16.25V11.1875H15.75Z" fill="#F1F1F1"/>
<path d="M11.25 11.1875H14.625V12.3125H11.25V11.1875ZM12.375 13.4375H14.625V14.5625H12.375V13.4375ZM18 6.125V5H16.8182C16.7452 4.64802 16.6054 4.31329 16.4064 4.01394L17.2446 3.17581L16.4492 2.38044L15.6111 3.21856C15.3117 3.01956 14.977 2.87979 14.625 2.80681V1.625H13.5V2.80681C13.148 2.87979 12.8133 3.01956 12.5139 3.21856L11.6758 2.38044L10.8804 3.17581L11.7186 4.01394C11.5196 4.31329 11.3798 4.64802 11.3068 5H10.125V6.125H11.3068C11.3798 6.47698 11.5196 6.81171 11.7186 7.11106L10.8804 7.94919L11.6758 8.74456L12.5139 7.90644C12.8133 8.10544 13.148 8.24521 13.5 8.31819V9.5H14.625V8.31819C14.977 8.24521 15.3117 8.10544 15.6111 7.90644L16.4492 8.74456L17.2446 7.94919L16.4064 7.11106C16.6054 6.81171 16.7452 6.47698 16.8182 6.125H18ZM14.0625 7.25C13.7287 7.25 13.4025 7.15103 13.125 6.9656C12.8475 6.78018 12.6312 6.51663 12.5035 6.20828C12.3757 5.89993 12.3423 5.56063 12.4074 5.23329C12.4725 4.90594 12.6333 4.60526 12.8693 4.36926C13.1053 4.13326 13.4059 3.97254 13.7333 3.90742C14.0606 3.84231 14.3999 3.87573 14.7083 4.00345C15.0166 4.13118 15.2802 4.34747 15.4656 4.62498C15.651 4.90248 15.75 5.22874 15.75 5.5625C15.7496 6.00992 15.5716 6.43888 15.2552 6.75525C14.9389 7.07162 14.5099 7.24955 14.0625 7.25Z" fill="#F1F1F1"/>
</svg>
