<svg width="18" height="19" viewBox="0 0 18 19" fill="none" xmlns="http://www.w3.org/2000/svg">
<path d="M9.21002 8.65492C8.64765 8.649 8.09961 8.47683 7.6349 8.16009C7.17018 7.84336 6.80956 7.39621 6.59845 6.87494C6.38733 6.35368 6.33515 5.78161 6.44848 5.23075C6.56182 4.6799 6.83559 4.17489 7.23534 3.7793C7.63509 3.38372 8.14294 3.11525 8.69495 3.00769C9.24696 2.90013 9.81846 2.95829 10.3375 3.17486C10.8565 3.39142 11.2999 3.7567 11.6117 4.22471C11.9236 4.69272 12.09 5.24253 12.09 5.80492C12.0847 6.56436 11.7786 7.29074 11.2388 7.82493C10.699 8.35913 9.96947 8.65759 9.21002 8.65492ZM9.21002 3.95492C8.84546 3.96083 8.49077 4.07434 8.19051 4.28118C7.89025 4.48802 7.65781 4.77898 7.52238 5.1175C7.38694 5.45602 7.35456 5.82701 7.4293 6.18388C7.50403 6.54074 7.68255 6.86757 7.94243 7.1233C8.20231 7.37904 8.53197 7.55228 8.88999 7.62126C9.24801 7.69025 9.61844 7.6519 9.95474 7.51104C10.291 7.37018 10.5782 7.13309 10.7802 6.82954C10.9822 6.52599 11.09 6.16953 11.09 5.80492C11.0847 5.3107 10.884 4.83868 10.5317 4.49201C10.1795 4.14535 9.70425 3.95225 9.21002 3.95492Z" fill="#F1F1F1"/>
<path d="M9.21002 8.65492C8.64766 8.649 8.09962 8.47683 7.63491 8.16009C7.17019 7.84336 6.80957 7.39621 6.59845 6.87494C6.38734 6.35368 6.33516 5.78161 6.44849 5.23075C6.56183 4.6799 6.8356 4.17489 7.23535 3.7793C7.6351 3.38372 8.14295 3.11525 8.69496 3.00769C9.24697 2.90013 9.81846 2.95829 10.3375 3.17486C10.8565 3.39142 11.2999 3.7567 11.6117 4.22471C11.9236 4.69272 12.09 5.24253 12.09 5.80492C12.0847 6.56436 11.7787 7.29074 11.2388 7.82493C10.699 8.35913 9.96947 8.65759 9.21002 8.65492ZM9.21002 3.95492C8.84546 3.96083 8.49078 4.07434 8.19052 4.28118C7.89026 4.48802 7.65782 4.77898 7.52239 5.1175C7.38695 5.45602 7.35457 5.82701 7.4293 6.18388C7.50404 6.54074 7.68256 6.86757 7.94244 7.1233C8.20232 7.37904 8.53198 7.55228 8.89 7.62126C9.24802 7.69025 9.61844 7.6519 9.95474 7.51104C10.291 7.37018 10.5782 7.13309 10.7802 6.82954C10.9822 6.52599 11.09 6.16953 11.09 5.80492C11.0847 5.3107 10.884 4.83868 10.5317 4.49201C10.1795 4.14535 9.70426 3.95225 9.21002 3.95492ZM10.955 9.32492C8.73729 8.93901 6.4542 9.29026 4.45502 10.3249C4.31311 10.4037 4.1956 10.52 4.11535 10.6611C4.0351 10.8022 3.99521 10.9627 4.00002 11.1249V12.9049C4.00002 13.0375 4.0527 13.1647 4.14647 13.2585C4.24024 13.3522 4.36742 13.4049 4.50002 13.4049C4.63263 13.4049 4.75981 13.3522 4.85358 13.2585C4.94735 13.1647 5.00002 13.0375 5.00002 12.9049V11.1899C6.85386 10.2597 8.96202 9.9646 11 10.3499L10.955 9.32492Z" fill="#F1F1F1"/>
<path d="M16.5 11.5H13.15V10.76C13.15 10.6274 13.0973 10.5002 13.0036 10.4065C12.9098 10.3127 12.7826 10.26 12.65 10.26C12.5174 10.26 12.3902 10.3127 12.2964 10.4065C12.2027 10.5002 12.15 10.6274 12.15 10.76V11.5H8.5C8.36739 11.5 8.24021 11.5527 8.14645 11.6465C8.05268 11.7402 8 11.8674 8 12V17C8 17.1326 8.05268 17.2598 8.14645 17.3536C8.24021 17.4473 8.36739 17.5 8.5 17.5H16.5C16.6326 17.5 16.7598 17.4473 16.8536 17.3536C16.9473 17.2598 17 17.1326 17 17V12C17 11.8674 16.9473 11.7402 16.8536 11.6465C16.7598 11.5527 16.6326 11.5 16.5 11.5ZM16 16.5H9V12.5H12.15V12.705C12.15 12.8376 12.2027 12.9648 12.2964 13.0586C12.3902 13.1523 12.5174 13.205 12.65 13.205C12.7826 13.205 12.9098 13.1523 13.0036 13.0586C13.0973 12.9648 13.15 12.8376 13.15 12.705V12.5H16V16.5Z" fill="#F1F1F1"/>
<path d="M10.905 14.2101H13.885V14.9101H10.905V14.2101ZM5.42 6.62006C4.03572 6.64322 2.67545 6.98542 1.445 7.62006C1.31118 7.69074 1.19909 7.79647 1.12071 7.92593C1.04233 8.05539 1.0006 8.20372 1 8.35506V9.90506C1 10.0377 1.05268 10.1648 1.14645 10.2586C1.24021 10.3524 1.36739 10.4051 1.5 10.4051C1.63261 10.4051 1.75979 10.3524 1.85355 10.2586C1.94732 10.1648 2 10.0377 2 9.90506V8.45506C3.17565 7.86987 4.47728 7.5831 5.79 7.62006C5.61838 7.30663 5.49372 6.96971 5.42 6.62006ZM16.555 7.61506C15.4514 7.03616 14.2386 6.69548 12.995 6.61506C12.9215 6.96405 12.7986 7.30078 12.63 7.61506C13.8015 7.64326 14.9523 7.93011 16 8.45506V9.90506C16 10.0377 16.0527 10.1648 16.1464 10.2586C16.2402 10.3524 16.3674 10.4051 16.5 10.4051C16.6326 10.4051 16.7598 10.3524 16.8536 10.2586C16.9473 10.1648 17 10.0377 17 9.90506V8.35506C17.0003 8.20287 16.959 8.05349 16.8806 7.92307C16.8022 7.79265 16.6896 7.68614 16.555 7.61506ZM5.33 5.80506V5.47006C4.93831 5.41764 4.58192 5.21618 4.33504 4.90761C4.08815 4.59904 3.96978 4.20714 4.00457 3.81349C4.03936 3.41984 4.22463 3.05477 4.52181 2.79429C4.81899 2.5338 5.20519 2.39797 5.6 2.41506C6.01066 2.41432 6.40537 2.57399 6.7 2.86006C6.96007 2.64582 7.24555 2.46445 7.55 2.32006C7.20981 1.92889 6.75907 1.64998 6.25719 1.52009C5.75532 1.39021 5.22587 1.41545 4.73862 1.59248C4.25138 1.76951 3.82921 2.09003 3.52776 2.51179C3.22632 2.93354 3.05975 3.43674 3.05 3.95506C3.06049 4.58944 3.3071 5.19712 3.74165 5.65941C4.1762 6.1217 4.76748 6.40538 5.4 6.45506C5.35753 6.24088 5.33411 6.02337 5.33 5.80506ZM12.385 1.41506C12.0414 1.41513 11.7013 1.48371 11.3845 1.61678C11.0677 1.74985 10.7806 1.94474 10.54 2.19006C10.8777 2.31328 11.1972 2.48146 11.49 2.69006C11.7234 2.52802 11.9964 2.43238 12.28 2.41331C12.5635 2.39425 12.8468 2.45249 13.0999 2.58182C13.3529 2.71115 13.566 2.90672 13.7166 3.14768C13.8672 3.38864 13.9496 3.66596 13.955 3.95006C13.9519 4.24188 13.8661 4.52684 13.7077 4.77195C13.5493 5.01706 13.3248 5.2123 13.06 5.33506C13.0803 5.48922 13.0903 5.64457 13.09 5.80006C13.0884 6.00103 13.0717 6.2016 13.04 6.40006C13.5847 6.26003 14.0678 5.94385 14.4142 5.50074C14.7605 5.05763 14.9507 4.51245 14.955 3.95006C14.9484 3.27371 14.6744 2.62746 14.1929 2.15248C13.7113 1.6775 13.0614 1.41238 12.385 1.41506Z" fill="#F1F1F1"/>
</svg>
