<svg width="18" height="19" viewBox="0 0 18 19" fill="none" xmlns="http://www.w3.org/2000/svg">
<path d="M6.3 2.75H4.2C3.88174 2.75 3.57652 2.87643 3.35147 3.10147C3.12643 3.32652 3 3.63174 3 3.95V7.55C3 7.70759 3.03104 7.86363 3.09134 8.00922C3.15165 8.15481 3.24004 8.2871 3.35147 8.39853C3.4629 8.50996 3.59519 8.59835 3.74078 8.65866C3.88637 8.71896 4.04241 8.75 4.2 8.75H6.3C6.45759 8.75 6.61363 8.71896 6.75922 8.65866C6.90481 8.59835 7.0371 8.50996 7.14853 8.39853C7.25996 8.2871 7.34835 8.15481 7.40866 8.00922C7.46896 7.86363 7.5 7.70759 7.5 7.55V3.95C7.5 3.63174 7.37357 3.32652 7.14853 3.10147C6.92348 2.87643 6.61826 2.75 6.3 2.75ZM6.3 11.75H4.2C3.88174 11.75 3.57652 11.8764 3.35147 12.1015C3.12643 12.3265 3 12.6317 3 12.95V15.05C3 15.3683 3.12643 15.6735 3.35147 15.8985C3.57652 16.1236 3.88174 16.25 4.2 16.25H6.3C6.61826 16.25 6.92348 16.1236 7.14853 15.8985C7.37357 15.6735 7.5 15.3683 7.5 15.05V12.95C7.5 12.6317 7.37357 12.3265 7.14853 12.1015C6.92348 11.8764 6.61826 11.75 6.3 11.75ZM13.8 2.75H11.7C11.3817 2.75 11.0765 2.87643 10.8515 3.10147C10.6264 3.32652 10.5 3.63174 10.5 3.95V6.05C10.5 6.36826 10.6264 6.67348 10.8515 6.89853C11.0765 7.12357 11.3817 7.25 11.7 7.25H13.8C14.1183 7.25 14.4235 7.12357 14.6485 6.89853C14.8736 6.67348 15 6.36826 15 6.05V3.95C15 3.63174 14.8736 3.32652 14.6485 3.10147C14.4235 2.87643 14.1183 2.75 13.8 2.75ZM13.8 10.25H11.7C11.3817 10.25 11.0765 10.3764 10.8515 10.6015C10.6264 10.8265 10.5 11.1317 10.5 11.45V15.05C10.5 15.3683 10.6264 15.6735 10.8515 15.8985C11.0765 16.1236 11.3817 16.25 11.7 16.25H13.8C14.1183 16.25 14.4235 16.1236 14.6485 15.8985C14.8736 15.6735 15 15.3683 15 15.05V11.45C15 11.1317 14.8736 10.8265 14.6485 10.6015C14.4235 10.3764 14.1183 10.25 13.8 10.25Z" stroke="#F1F1F1" stroke-width="1.5" stroke-miterlimit="10" stroke-linejoin="round"/>
</svg>
