<svg width="25" height="24" viewBox="0 0 25 24" fill="none" xmlns="http://www.w3.org/2000/svg">
<path fill-rule="evenodd" clip-rule="evenodd" d="M17.03 5.655V7.995L18.53 6.51V3.75L17.78 3H4.28L3.53 3.75V4.479L3.5 4.5V19.935L4.04 20.625L11.54 23.205L12.5 22.5V21H17.78L18.53 20.25V17.535L17.03 16.035V19.5H12.5V7.065L12.005 6.375L6.554 4.5H17.03V5.655ZM11 21.42L5 19.41V5.58L11 7.59V21.42ZM20.78 12.72H13.325V11.22H20.72L18.32 8.82L19.385 7.77L23.09 11.46V12.525L19.355 16.245L18.305 15.195L20.78 12.72Z" fill="#004E92"/>
</svg>
