<svg width="18" height="19" viewBox="0 0 18 19" fill="none" xmlns="http://www.w3.org/2000/svg">
<path d="M9 15.6875H3.375C3.22582 15.6875 3.08274 15.6282 2.97725 15.5227C2.87176 15.4173 2.8125 15.2742 2.8125 15.125V9.5C2.8125 9.35082 2.87176 9.20774 2.97725 9.10225C3.08274 8.99676 3.22582 8.9375 3.375 8.9375H9M9 15.6875V8.9375M9 15.6875H14.625C14.7742 15.6875 14.9173 15.6282 15.0227 15.5227C15.1282 15.4173 15.1875 15.2742 15.1875 15.125V9.5C15.1875 9.35082 15.1282 9.20774 15.0227 9.10225C14.9173 8.99676 14.7742 8.9375 14.625 8.9375H9M11.8125 9.5V11.75M9.5625 3.875V6.125M6.1875 9.5V11.75M5.0625 3.875V8.9375H12.9375V3.875C12.9375 3.72582 12.8782 3.58274 12.7727 3.47725C12.6673 3.37176 12.5242 3.3125 12.375 3.3125H5.625C5.47582 3.3125 5.33274 3.37176 5.22725 3.47725C5.12176 3.58274 5.0625 3.72582 5.0625 3.875Z" stroke="#F1F1F1"/>
</svg>
