<svg width="18" height="19" viewBox="0 0 18 19" fill="none" xmlns="http://www.w3.org/2000/svg">
<g clip-path="url(#clip0_38_8446)">
<path d="M3.34125 2.01875C3.44687 1.89526 3.57799 1.79612 3.72559 1.72815C3.87318 1.66018 4.03375 1.62499 4.19625 1.625H13.8038C13.9662 1.62499 14.1268 1.66018 14.2744 1.72815C14.422 1.79612 14.5531 1.89526 14.6587 2.01875L17.5939 5.44325C17.8559 5.74906 18 6.13851 18 6.54125V6.82812C18.0001 7.38497 17.8261 7.92793 17.5025 8.3811C17.1789 8.83427 16.7219 9.17502 16.1951 9.35571C15.6684 9.53641 15.0984 9.54802 14.5648 9.38893C14.0311 9.22984 13.5605 8.90799 13.2188 8.46838C12.9692 8.78993 12.6494 9.05008 12.2837 9.2289C11.9181 9.40772 11.5164 9.50046 11.1094 9.5C10.7024 9.50046 10.3006 9.40772 9.93501 9.2289C9.56937 9.05008 9.24953 8.78993 9 8.46838C8.75047 8.78993 8.43063 9.05008 8.06499 9.2289C7.69936 9.40772 7.29764 9.50046 6.89062 9.5C6.48361 9.50046 6.08189 9.40772 5.71626 9.2289C5.35062 9.05008 5.03078 8.78993 4.78125 8.46838C4.43947 8.90799 3.96887 9.22984 3.43523 9.38893C2.90159 9.54802 2.33158 9.53641 1.80486 9.35571C1.27815 9.17502 0.821051 8.83427 0.497455 8.3811C0.17386 7.92793 -6.14234e-05 7.38497 1.62726e-08 6.82812V6.54125C1.41835e-05 6.13851 0.144064 5.74906 0.406125 5.44325L3.34125 2.01875ZM5.34375 6.82812C5.34375 7.23838 5.50672 7.63184 5.79682 7.92193C6.08691 8.21203 6.48037 8.375 6.89062 8.375C7.30088 8.375 7.69434 8.21203 7.98443 7.92193C8.27453 7.63184 8.4375 7.23838 8.4375 6.82812C8.4375 6.67894 8.49676 6.53587 8.60225 6.43038C8.70774 6.32489 8.85082 6.26562 9 6.26562C9.14918 6.26562 9.29226 6.32489 9.39775 6.43038C9.50324 6.53587 9.5625 6.67894 9.5625 6.82812C9.5625 7.23838 9.72547 7.63184 10.0156 7.92193C10.3057 8.21203 10.6991 8.375 11.1094 8.375C11.5196 8.375 11.9131 8.21203 12.2032 7.92193C12.4933 7.63184 12.6562 7.23838 12.6562 6.82812C12.6562 6.67894 12.7155 6.53587 12.821 6.43038C12.9265 6.32489 13.0696 6.26562 13.2188 6.26562C13.3679 6.26562 13.511 6.32489 13.6165 6.43038C13.722 6.53587 13.7812 6.67894 13.7812 6.82812C13.7813 7.23838 13.9442 7.63184 14.2343 7.92193C14.5244 8.21203 14.9179 8.375 15.3281 8.375C15.7384 8.375 16.1318 8.21203 16.4219 7.92193C16.712 7.63184 16.875 7.23838 16.875 6.82812V6.54125C16.875 6.40718 16.8271 6.27752 16.74 6.17563L13.8038 2.75H4.19625L1.26 6.17563C1.17287 6.27752 1.12499 6.40718 1.125 6.54125V6.82812C1.125 7.23838 1.28797 7.63184 1.57807 7.92193C1.86816 8.21203 2.26162 8.375 2.67188 8.375C3.08213 8.375 3.47559 8.21203 3.76568 7.92193C4.05578 7.63184 4.21875 7.23838 4.21875 6.82812C4.21875 6.67894 4.27801 6.53587 4.3835 6.43038C4.48899 6.32489 4.63207 6.26562 4.78125 6.26562C4.93043 6.26562 5.07351 6.32489 5.179 6.43038C5.28449 6.53587 5.34375 6.67894 5.34375 6.82812ZM1.6875 10.0625C1.83668 10.0625 1.97976 10.1218 2.08525 10.2273C2.19074 10.3327 2.25 10.4758 2.25 10.625V17.375H3.375V11.75C3.375 11.4516 3.49353 11.1655 3.7045 10.9545C3.91548 10.7435 4.20163 10.625 4.5 10.625H7.875C8.17337 10.625 8.45952 10.7435 8.67049 10.9545C8.88147 11.1655 9 11.4516 9 11.75V17.375H15.75V10.625C15.75 10.4758 15.8093 10.3327 15.9148 10.2273C16.0202 10.1218 16.1633 10.0625 16.3125 10.0625C16.4617 10.0625 16.6048 10.1218 16.7102 10.2273C16.8157 10.3327 16.875 10.4758 16.875 10.625V17.375H17.4375C17.5867 17.375 17.7298 17.4343 17.8352 17.5398C17.9407 17.6452 18 17.7883 18 17.9375C18 18.0867 17.9407 18.2298 17.8352 18.3352C17.7298 18.4407 17.5867 18.5 17.4375 18.5H0.5625C0.413316 18.5 0.270242 18.4407 0.164752 18.3352C0.0592632 18.2298 1.62726e-08 18.0867 1.62726e-08 17.9375C1.62726e-08 17.7883 0.0592632 17.6452 0.164752 17.5398C0.270242 17.4343 0.413316 17.375 0.5625 17.375H1.125V10.625C1.125 10.4758 1.18426 10.3327 1.28975 10.2273C1.39524 10.1218 1.53832 10.0625 1.6875 10.0625ZM4.5 17.375H7.875V11.75H4.5V17.375ZM10.125 11.75C10.125 11.4516 10.2435 11.1655 10.4545 10.9545C10.6655 10.7435 10.9516 10.625 11.25 10.625H13.5C13.7984 10.625 14.0845 10.7435 14.2955 10.9545C14.5065 11.1655 14.625 11.4516 14.625 11.75V15.125C14.625 15.4234 14.5065 15.7095 14.2955 15.9205C14.0845 16.1315 13.7984 16.25 13.5 16.25H11.25C10.9516 16.25 10.6655 16.1315 10.4545 15.9205C10.2435 15.7095 10.125 15.4234 10.125 15.125V11.75ZM13.5 11.75H11.25V15.125H13.5V11.75Z" fill="#F1F1F1"/>
</g>
<defs>
<clipPath id="clip0_38_8446">
<rect width="18" height="18" fill="white" transform="translate(0 0.5)"/>
</clipPath>
</defs>
</svg>
