<svg width="18" height="19" viewBox="0 0 18 19" fill="none" xmlns="http://www.w3.org/2000/svg">
<path d="M11.25 11.75L9.00004 9.5M9.00004 9.5L6.75003 7.25M9.00004 9.5L11.25 7.25M9.00004 9.5L6.75003 11.75M2.42253 6.43475L5.93253 2.9225C6.04503 2.81 6.19503 2.75 6.36003 2.75H11.6475C11.805 2.75 11.9625 2.81 12.075 2.9225L15.5775 6.42725C15.69 6.53975 15.75 6.68975 15.75 6.85475V12.1453C15.75 12.3028 15.69 12.4603 15.5775 12.5728L12.075 16.0775C11.9625 16.19 11.8125 16.25 11.6475 16.25H6.35253C6.27342 16.2509 6.19492 16.236 6.12156 16.2064C6.04819 16.1768 5.9814 16.133 5.92503 16.0775L2.42253 12.5728C2.36702 12.5164 2.32319 12.4496 2.29359 12.3762C2.26399 12.3029 2.24918 12.2244 2.25003 12.1453V6.85475C2.25003 6.69725 2.31003 6.53975 2.42253 6.42725V6.43475Z" stroke="#F1F1F1" stroke-width="1.5" stroke-miterlimit="10" stroke-linecap="round" stroke-linejoin="round"/>
</svg>
