<svg width="18" height="19" viewBox="0 0 18 19" fill="none" xmlns="http://www.w3.org/2000/svg">
<path fill-rule="evenodd" clip-rule="evenodd" d="M13.5676 2.41158C13.1536 2.17908 12.7126 2.15658 12.2468 2.21433C11.8043 2.26983 11.2651 2.40933 10.6178 2.57808L9.10355 2.97108C8.4563 3.13983 7.91781 3.27933 7.50606 3.44658C7.07181 3.62208 6.6968 3.85758 6.4538 4.26633C6.2093 4.67733 6.18531 5.11683 6.24606 5.57583C6.30381 6.00858 6.44856 6.53358 6.62106 7.15908L7.02831 8.63208C7.20081 9.25833 7.3463 9.78258 7.51956 10.1846C7.70331 10.6121 7.94856 10.9758 8.36556 11.2098C8.77956 11.4416 9.22056 11.4648 9.68706 11.4063C10.1296 11.3516 10.6688 11.2113 11.3161 11.0426L12.8303 10.6496C13.4776 10.4816 14.0161 10.3413 14.4278 10.1741C14.8621 9.99858 15.2371 9.76308 15.4801 9.35433C15.7246 8.94333 15.7486 8.50383 15.6878 8.04558C15.6301 7.61283 15.4853 7.08708 15.3128 6.46158L14.9056 4.98858C14.7331 4.36308 14.5876 3.83808 14.4143 3.43608C14.2306 3.00858 13.9838 2.64483 13.5676 2.41158ZM10.8646 3.67608C11.5583 3.49608 12.0256 3.37608 12.3871 3.33108C12.7328 3.28758 12.8986 3.32583 13.0193 3.39333C13.1371 3.45933 13.2503 3.57408 13.3816 3.88083C13.5203 4.20333 13.6463 4.65258 13.8323 5.32608L14.2178 6.72333C14.4046 7.39683 14.5276 7.84683 14.5733 8.19333C14.6168 8.52258 14.5778 8.67183 14.5133 8.77908C14.4481 8.88933 14.3296 9.00108 14.0071 9.13158C13.6711 9.26733 13.2046 9.39033 12.5108 9.57033L11.0708 9.94458C10.3771 10.1246 9.90981 10.2446 9.54831 10.2896C9.20181 10.3338 9.0368 10.2956 8.91605 10.2281C8.7983 10.1621 8.68505 10.0466 8.5538 9.74058C8.41505 9.41808 8.28905 8.96808 8.10306 8.29458L7.71755 6.89808C7.5308 6.22308 7.4078 5.77383 7.36205 5.42808C7.31855 5.09808 7.35755 4.94958 7.42205 4.84158C7.4873 4.73133 7.60581 4.61958 7.92831 4.48908C8.26431 4.35333 8.73081 4.23108 9.42456 4.05033L10.8646 3.67608Z" fill="#F1F1F1"/>
<path fill-rule="evenodd" clip-rule="evenodd" d="M2.40005 4.04352C2.25796 4.00869 2.10789 4.03058 1.98167 4.10456C1.85546 4.17854 1.76303 4.29878 1.724 4.43978C1.68497 4.58078 1.70241 4.73143 1.77262 4.85978C1.84282 4.98813 1.96028 5.08408 2.10005 5.12727L3.3773 5.48202C3.6968 5.57052 3.93455 5.81202 4.01555 6.10527L5.47955 11.4025C5.42305 11.4135 5.3668 11.4265 5.3108 11.4415C3.82805 11.8263 2.92205 13.318 3.32855 14.7918C3.73355 16.258 5.27405 17.1033 6.7508 16.7193C8.0438 16.384 8.89805 15.2073 8.82605 13.9353L15.1411 12.2943C15.2126 12.2757 15.2797 12.2432 15.3387 12.1987C15.3976 12.1542 15.4472 12.0985 15.4847 12.0348C15.5221 11.9711 15.5466 11.9007 15.5568 11.8275C15.567 11.7544 15.5627 11.6799 15.5442 11.6084C15.5256 11.5369 15.4931 11.4697 15.4486 11.4108C15.4041 11.3518 15.3484 11.3022 15.2847 11.2648C15.221 11.2274 15.1506 11.2028 15.0774 11.1926C15.0043 11.1824 14.9298 11.1867 14.8583 11.2053L8.5298 12.85C8.34043 12.4883 8.07397 12.1725 7.74921 11.925C7.42445 11.6774 7.04932 11.5042 6.6503 11.4175L5.10005 5.80527C5.0047 5.46776 4.82362 5.16067 4.57444 4.91386C4.32526 4.66704 4.01646 4.48891 3.67805 4.39677L2.40005 4.04352ZM5.5943 12.5298C6.5033 12.2943 7.4153 12.8215 7.6493 13.669C7.8818 14.509 7.3718 15.3963 6.4688 15.631C5.5598 15.8673 4.6478 15.3393 4.4138 14.4918C4.1813 13.6518 4.6913 12.7645 5.5943 12.5298Z" fill="#F1F1F1"/>
</svg>
