<svg width="18" height="18" viewBox="0 0 18 18" fill="none" xmlns="http://www.w3.org/2000/svg">
<path d="M13.5 9.7485H9.75V13.4985C9.75 13.6974 9.67098 13.8882 9.53033 14.0288C9.38968 14.1695 9.19891 14.2485 9 14.2485C8.80109 14.2485 8.61032 14.1695 8.46967 14.0288C8.32902 13.8882 8.25 13.6974 8.25 13.4985V9.7485H4.5C4.30109 9.7485 4.11032 9.66949 3.96967 9.52883C3.82902 9.38818 3.75 9.19742 3.75 8.9985C3.75 8.79959 3.82902 8.60883 3.96967 8.46817C4.11032 8.32752 4.30109 8.2485 4.5 8.2485H8.25V4.4985C8.25 4.29959 8.32902 4.10883 8.46967 3.96817C8.61032 3.82752 8.80109 3.7485 9 3.7485C9.19891 3.7485 9.38968 3.82752 9.53033 3.96817C9.67098 4.10883 9.75 4.29959 9.75 4.4985V8.2485H13.5C13.6989 8.2485 13.8897 8.32752 14.0303 8.46817C14.171 8.60883 14.25 8.79959 14.25 8.9985C14.25 9.19742 14.171 9.38818 14.0303 9.52883C13.8897 9.66949 13.6989 9.7485 13.5 9.7485Z" fill="#004E92"/>
</svg>
