<svg width="24" height="25" viewBox="0 0 24 25" fill="none" xmlns="http://www.w3.org/2000/svg">
<path d="M11.272 7.75C11.272 7.55109 11.351 7.36032 11.4917 7.21967C11.6323 7.07902 11.8231 7 12.022 7H16.75C16.9489 7 17.1397 7.07902 17.2803 7.21967C17.421 7.36032 17.5 7.55109 17.5 7.75V12.479C17.5 12.6779 17.421 12.8687 17.2803 13.0093C17.1397 13.15 16.9489 13.229 16.75 13.229C16.5511 13.229 16.3603 13.15 16.2197 13.0093C16.079 12.8687 16 12.6779 16 12.479V9.56L10.78 14.78C10.7108 14.8516 10.628 14.9087 10.5365 14.948C10.445 14.9872 10.3465 15.0079 10.2469 15.0087C10.1474 15.0095 10.0486 14.9905 9.95646 14.9527C9.8643 14.915 9.78059 14.8592 9.7102 14.7888C9.63982 14.7183 9.58417 14.6346 9.5465 14.5424C9.50883 14.4502 9.4899 14.3514 9.49081 14.2518C9.49173 14.1523 9.51246 14.0539 9.55181 13.9624C9.59116 13.8709 9.64834 13.7882 9.72 13.719L14.94 8.5H12.022C11.8231 8.5 11.6323 8.42098 11.4917 8.28033C11.351 8.13968 11.272 7.94891 11.272 7.75ZM6.157 5.75C6.36845 5.09612 6.78173 4.5261 7.33747 4.12183C7.8932 3.71756 8.56278 3.49986 9.25 3.5H17.75C18.612 3.5 19.4386 3.84241 20.0481 4.4519C20.6576 5.0614 21 5.88805 21 6.75V15.338C21.0002 15.9798 20.8104 16.6073 20.4544 17.1414C20.0985 17.6754 19.5924 18.0922 19 18.339V18.475C19 19.525 18.47 20.32 17.691 20.819C16.941 21.299 15.974 21.505 14.998 21.499H14.996L10.919 21.495H7C5.843 21.495 4.836 21.133 4.11 20.45C3.383 19.764 3 18.81 3 17.75V9C3 8.135 3.216 7.317 3.734 6.704C4.268 6.071 5.044 5.75 5.956 5.75H6.157ZM6 7.25H5.956C5.412 7.25 5.085 7.429 4.88 7.671C4.66 7.933 4.5 8.365 4.5 9V17.75C4.5 18.44 4.742 18.984 5.14 19.358C5.54 19.735 6.157 19.995 7 19.995H10.92L15 20H15.004C15.792 20.004 16.449 19.834 16.882 19.556C17.254 19.318 17.464 19.006 17.496 18.588H9.25C8.38805 18.588 7.5614 18.2456 6.9519 17.6361C6.34241 17.0266 6 16.2 6 15.338V7.25ZM9.25 5C8.78587 5 8.34075 5.18437 8.01256 5.51256C7.68437 5.84075 7.5 6.28587 7.5 6.75V15.338C7.5 16.305 8.284 17.088 9.25 17.088H17.75C18.2141 17.088 18.6592 16.9036 18.9874 16.5754C19.3156 16.2472 19.5 15.8021 19.5 15.338V6.75C19.5 6.28587 19.3156 5.84075 18.9874 5.51256C18.6592 5.18437 18.2141 5 17.75 5H9.25Z" fill="#F1F1F1"/>
</svg>
