<svg width="18" height="19" viewBox="0 0 18 19" fill="none" xmlns="http://www.w3.org/2000/svg">
<path d="M12.6613 7.63741L9.28631 5.64054C9.19956 5.58935 9.10065 5.5624 8.99992 5.5625C8.89919 5.5626 8.80034 5.58974 8.71369 5.6411L5.33869 7.63798C5.25461 7.68769 5.18494 7.75844 5.13651 7.84326C5.08808 7.92808 5.06257 8.02405 5.0625 8.12173V12.003C5.0625 12.2021 5.16769 12.386 5.33869 12.4867L8.71369 14.4836C8.80019 14.5355 8.89915 14.5628 9 14.5628C9.10085 14.5628 9.19981 14.5355 9.28631 14.4836L12.6613 12.4867C12.7454 12.437 12.8151 12.3663 12.8635 12.2814C12.9119 12.1966 12.9374 12.1006 12.9375 12.003V8.12173C12.9375 8.02396 12.9121 7.92787 12.8636 7.84294C12.8152 7.75802 12.7455 7.68718 12.6613 7.63741ZM11.8125 11.6824L9 13.3462L6.1875 11.6824V8.44235L9 6.77848L11.8125 8.44235V11.6824Z" fill="#F1F1F1"/>
<path d="M3.375 11.8535V6.72687L6.8625 4.66587L6.29044 3.69725L2.52619 5.92194C2.44203 5.9717 2.3723 6.04254 2.32387 6.12747C2.27544 6.2124 2.24998 6.30848 2.25 6.40625V11.8535C1.92211 11.9694 1.63805 12.1838 1.43667 12.4674C1.2353 12.7509 1.12644 13.0897 1.125 13.4375C1.125 14.3679 1.88212 15.125 2.8125 15.125C3.74288 15.125 4.5 14.3679 4.5 13.4375C4.49856 13.0897 4.3897 12.7509 4.18833 12.4674C3.98695 12.1838 3.70289 11.9694 3.375 11.8535ZM2.8125 14C2.66767 13.9935 2.53092 13.9314 2.43072 13.8266C2.33052 13.7219 2.2746 13.5825 2.2746 13.4375C2.2746 13.2925 2.33052 13.1531 2.43072 13.0484C2.53092 12.9436 2.66767 12.8815 2.8125 12.875C2.95733 12.8815 3.09408 12.9436 3.19428 13.0484C3.29448 13.1531 3.3504 13.2925 3.3504 13.4375C3.3504 13.5825 3.29448 13.7219 3.19428 13.8266C3.09408 13.9314 2.95733 13.9935 2.8125 14ZM15.1875 11.75C14.2571 11.75 13.5 12.5071 13.5 13.4375C13.5 13.6361 13.5405 13.8239 13.6041 14.0011L9 16.7214L5.39775 14.5929L4.82569 15.5615L8.71369 17.8587C8.80034 17.9101 8.89919 17.9373 8.99992 17.9373C9.10065 17.9374 9.19956 17.9105 9.28631 17.8593L14.3263 14.8809C14.5794 15.0322 14.8719 15.125 15.1875 15.125C16.1179 15.125 16.875 14.3679 16.875 13.4375C16.875 12.5071 16.1179 11.75 15.1875 11.75ZM15.1875 14C15.0427 13.9935 14.9059 13.9314 14.8057 13.8266C14.7055 13.7219 14.6496 13.5825 14.6496 13.4375C14.6496 13.2925 14.7055 13.1531 14.8057 13.0484C14.9059 12.9436 15.0427 12.8815 15.1875 12.875C15.3323 12.8815 15.4691 12.9436 15.5693 13.0484C15.6695 13.1531 15.7254 13.2925 15.7254 13.4375C15.7254 13.5825 15.6695 13.7219 15.5693 13.8266C15.4691 13.9314 15.3323 13.9935 15.1875 14ZM9 4.4375C9.41119 4.4375 9.783 4.28394 10.0761 4.03925L14.625 6.72744V10.625H15.75V6.40625C15.75 6.30848 15.7246 6.2124 15.6761 6.12747C15.6277 6.04254 15.558 5.9717 15.4738 5.92194L10.6549 3.07456C10.6759 2.96956 10.6868 2.86137 10.6875 2.75C10.6875 1.81962 9.93038 1.0625 9 1.0625C8.06962 1.0625 7.3125 1.81962 7.3125 2.75C7.3125 3.68038 8.06962 4.4375 9 4.4375ZM9 2.1875C9.11141 2.18739 9.22035 2.22033 9.31303 2.28216C9.40571 2.34399 9.47797 2.43192 9.52066 2.53483C9.56334 2.63774 9.57454 2.751 9.55283 2.86027C9.53113 2.96955 9.47749 3.06993 9.39871 3.14871C9.31993 3.22749 9.21955 3.28113 9.11027 3.30283C9.001 3.32454 8.88774 3.31334 8.78483 3.27066C8.68192 3.22797 8.59399 3.15571 8.53216 3.06303C8.47033 2.97035 8.43739 2.86141 8.4375 2.75C8.4375 2.4395 8.69006 2.1875 9 2.1875Z" fill="#F1F1F1"/>
</svg>
