<svg width="18" height="19" viewBox="0 0 18 19" fill="none" xmlns="http://www.w3.org/2000/svg">
<path fill-rule="evenodd" clip-rule="evenodd" d="M8.15625 3.03111C8.31159 3.03111 8.4375 3.15703 8.4375 3.31236V8.65611C8.4375 8.81143 8.31159 8.93736 8.15625 8.93736H2.8125C2.65716 8.93736 2.53125 8.81143 2.53125 8.65611V3.31236C2.53125 3.15703 2.65716 3.03111 2.8125 3.03111H8.15625ZM7.24219 4.22643H3.72656V7.74205H7.24219V4.22643ZM15.9141 5.76778C16.0239 5.87761 16.0239 6.05569 15.9141 6.16552L12.7321 9.34751C12.6222 9.45734 12.4442 9.45734 12.3343 9.34751L9.15235 6.16552C9.04252 6.05569 9.04252 5.87761 9.15235 5.76778L12.3343 2.58579C12.4442 2.47596 12.6222 2.47596 12.7321 2.58579L15.9141 5.76778ZM14.4225 5.96664L12.5332 4.07736L10.6439 5.96666L12.5332 7.85596L14.4225 5.96664ZM8.15625 10.0624C8.31159 10.0624 8.4375 10.1883 8.4375 10.3436V15.6874C8.4375 15.8427 8.31159 15.9686 8.15625 15.9686H2.8125C2.65716 15.9686 2.53125 15.8427 2.53125 15.6874V10.3436C2.53125 10.1883 2.65716 10.0624 2.8125 10.0624H8.15625ZM7.24219 11.2577H3.72656V14.7733H7.24219V11.2577ZM15.1875 10.0624C15.3428 10.0624 15.4688 10.1883 15.4688 10.3436V15.6874C15.4688 15.8427 15.3428 15.9686 15.1875 15.9686H9.84375C9.68841 15.9686 9.5625 15.8427 9.5625 15.6874V10.3436C9.5625 10.1883 9.68841 10.0624 9.84375 10.0624H15.1875ZM14.2734 11.2577H10.7578V14.7733H14.2734V11.2577Z" fill="#F1F1F1"/>
</svg>
