<svg width="18" height="19" viewBox="0 0 18 19" fill="none" xmlns="http://www.w3.org/2000/svg">
<path d="M6.75 13.25V11.75M9 13.25V10.25M11.25 13.25V8.75M12.75 16.25H5.25C4.85218 16.25 4.47064 16.092 4.18934 15.8107C3.90804 15.5294 3.75 15.1478 3.75 14.75V4.25C3.75 3.85218 3.90804 3.47064 4.18934 3.18934C4.47064 2.90804 4.85218 2.75 5.25 2.75H9.4395C9.6384 2.75004 9.82913 2.82909 9.96975 2.96975L14.0303 7.03025C14.1709 7.17087 14.25 7.3616 14.25 7.5605V14.75C14.25 15.1478 14.092 15.5294 13.8107 15.8107C13.5294 16.092 13.1478 16.25 12.75 16.25Z" stroke="#F1F1F1" stroke-width="2" stroke-linecap="round" stroke-linejoin="round"/>
</svg>
