<svg width="18" height="19" viewBox="0 0 18 19" fill="none" xmlns="http://www.w3.org/2000/svg">
<path d="M12.9375 13.4375V15.125H4.78125C4.10992 15.125 3.46609 14.8583 2.99139 14.3836C2.51668 13.9089 2.25 13.2651 2.25 12.5938C2.25 11.9224 2.51668 11.2786 2.99139 10.8039C3.46609 10.3292 4.10992 10.0625 4.78125 10.0625H5.0625V8.9375H4.78125C3.81155 8.9375 2.88157 9.32271 2.19589 10.0084C1.51021 10.6941 1.125 11.6241 1.125 12.5938C1.125 13.5634 1.51021 14.4934 2.19589 15.1791C2.88157 15.8648 3.81155 16.25 4.78125 16.25H12.9375V17.9375H17.4375V13.4375H12.9375ZM16.3125 16.8125H14.0625V14.5625H16.3125V16.8125Z" fill="#F1F1F1"/>
<path d="M11.8125 12.875H10.6875V11.1875H7.3125V12.875H6.1875V11.1875C6.1875 10.8891 6.30603 10.603 6.51701 10.392C6.72798 10.181 7.01413 10.0625 7.3125 10.0625H10.6875C10.9859 10.0625 11.272 10.181 11.483 10.392C11.694 10.603 11.8125 10.8891 11.8125 11.1875V12.875ZM9 9.5C8.66624 9.5 8.33998 9.40103 8.06248 9.21561C7.78497 9.03018 7.56868 8.76663 7.44095 8.45828C7.31323 8.14993 7.27981 7.81063 7.34492 7.48329C7.41004 7.15594 7.57076 6.85526 7.80676 6.61926C8.04276 6.38326 8.34344 6.22254 8.67079 6.15743C8.99813 6.09231 9.33743 6.12573 9.64578 6.25345C9.95413 6.38118 10.2177 6.59747 10.4031 6.87498C10.5885 7.15248 10.6875 7.47874 10.6875 7.8125C10.6871 8.25992 10.5091 8.68888 10.1927 9.00525C9.87638 9.32162 9.44742 9.49955 9 9.5ZM9 7.25C8.88875 7.25 8.77999 7.28299 8.68749 7.3448C8.59499 7.40661 8.52289 7.49446 8.48032 7.59724C8.43774 7.70002 8.4266 7.81312 8.44831 7.92224C8.47001 8.03135 8.52359 8.13158 8.60225 8.21025C8.68092 8.28892 8.78115 8.34249 8.89026 8.36419C8.99938 8.3859 9.11248 8.37476 9.21526 8.33218C9.31804 8.28961 9.40589 8.21751 9.4677 8.12501C9.52951 8.03251 9.5625 7.92375 9.5625 7.8125C9.5625 7.66332 9.50324 7.52024 9.39775 7.41475C9.29226 7.30926 9.14918 7.25 9 7.25Z" fill="#F1F1F1"/>
<path d="M13.2188 2.75H5.0625V1.0625H0.5625V5.5625H5.0625V3.875H13.2188C13.8901 3.875 14.5339 4.14168 15.0086 4.61639C15.4833 5.09109 15.75 5.73492 15.75 6.40625C15.75 7.07758 15.4833 7.72141 15.0086 8.19611C14.5339 8.67082 13.8901 8.9375 13.2188 8.9375H12.9375V10.0625H13.2188C14.1884 10.0625 15.1184 9.67729 15.8041 8.99161C16.4898 8.30593 16.875 7.37595 16.875 6.40625C16.875 5.43655 16.4898 4.50657 15.8041 3.82089C15.1184 3.13521 14.1884 2.75 13.2188 2.75ZM3.9375 4.4375H1.6875V2.1875H3.9375V4.4375Z" fill="#F1F1F1"/>
</svg>
