<svg width="18" height="19" viewBox="0 0 18 19" fill="none" xmlns="http://www.w3.org/2000/svg">
<path d="M12.75 15.5C13.1478 15.5 13.5294 15.342 13.8107 15.0607C14.092 14.7794 14.25 14.3978 14.25 14C14.25 13.6022 14.092 13.2206 13.8107 12.9393C13.5294 12.658 13.1478 12.5 12.75 12.5C12.3522 12.5 11.9706 12.658 11.6893 12.9393C11.408 13.2206 11.25 13.6022 11.25 14C11.25 14.3978 11.408 14.7794 11.6893 15.0607C11.9706 15.342 12.3522 15.5 12.75 15.5ZM5.25 15.5C5.64782 15.5 6.02936 15.342 6.31066 15.0607C6.59196 14.7794 6.75 14.3978 6.75 14C6.75 13.6022 6.59196 13.2206 6.31066 12.9393C6.02936 12.658 5.64782 12.5 5.25 12.5C4.85218 12.5 4.47064 12.658 4.18934 12.9393C3.90804 13.2206 3.75 13.6022 3.75 14C3.75 14.3978 3.90804 14.7794 4.18934 15.0607C4.47064 15.342 4.85218 15.5 5.25 15.5Z" stroke="#F1F1F1" stroke-width="1.5" stroke-linecap="round" stroke-linejoin="round"/>
<path d="M14.25 8.75H16.5M16.5 8.75V10.25C16.5 12.0178 16.5 12.9012 15.951 13.451C15.5857 13.8162 15.0728 13.9385 14.25 13.979M16.5 8.75L15.543 6.9725C15.0255 6.011 14.7668 5.53025 14.322 5.2655C13.878 5 13.3327 5 12.2407 5H10.875M3.75 13.979C2.92725 13.9385 2.415 13.8162 2.049 13.451C1.5 12.9012 1.5 12.0178 1.5 10.25V7.25C1.5 5.48225 1.5 4.598 2.049 4.049C2.598 3.5 3.48225 3.5 5.25 3.5H7.725C8.56275 3.5 8.98125 3.5 9.32025 3.61025C9.65792 3.71998 9.96483 3.90806 10.2159 4.15911C10.4669 4.41017 10.655 4.71708 10.7647 5.05475C10.875 5.39375 10.875 5.81225 10.875 6.65C10.875 7.565 10.875 8.02325 10.6245 8.333C10.575 8.394 10.5195 8.4495 10.458 8.4995C10.1483 8.75 9.69075 8.75 8.775 8.75H6M11.25 14H6.75" stroke="#F1F1F1" stroke-width="1.5" stroke-linecap="round" stroke-linejoin="round"/>
<path d="M7.5 10.25C7.5 10.25 6.996 9.833 6.55275 9.437C6.24 9.185 6 8.96975 6 8.75375C6 8.5625 6.1875 8.38475 6.492 8.10575C6.924 7.7465 7.5 7.25 7.5 7.25" stroke="#F1F1F1" stroke-width="1.5" stroke-linecap="round" stroke-linejoin="round"/>
</svg>
