<svg width="72" height="72" viewBox="0 0 72 72" fill="none" xmlns="http://www.w3.org/2000/svg">
<path d="M10.8 32.4C14.7712 32.4 18 29.1712 18 25.2C18 21.2287 14.7712 18 10.8 18C6.82875 18 3.6 21.2287 3.6 25.2C3.6 29.1712 6.82875 32.4 10.8 32.4ZM61.2 32.4C65.1712 32.4 68.4 29.1712 68.4 25.2C68.4 21.2287 65.1712 18 61.2 18C57.2287 18 54 21.2287 54 25.2C54 29.1712 57.2287 32.4 61.2 32.4ZM64.8 36H57.6C55.62 36 53.8312 36.7987 52.5262 38.0925C57.06 40.5787 60.2775 45.0675 60.975 50.4H68.4C70.3912 50.4 72 48.7912 72 46.8V43.2C72 39.2287 68.7712 36 64.8 36ZM36 36C42.9637 36 48.6 30.3637 48.6 23.4C48.6 16.4362 42.9637 10.8 36 10.8C29.0362 10.8 23.4 16.4362 23.4 23.4C23.4 30.3637 29.0362 36 36 36ZM44.64 39.6H43.7062C41.3662 40.725 38.7675 41.4 36 41.4C33.2325 41.4 30.645 40.725 28.2937 39.6H27.36C20.205 39.6 14.4 45.405 14.4 52.56V55.8C14.4 58.7812 16.8187 61.2 19.8 61.2H52.2C55.1812 61.2 57.6 58.7812 57.6 55.8V52.56C57.6 45.405 51.795 39.6 44.64 39.6ZM19.4738 38.0925C18.1688 36.7987 16.38 36 14.4 36H7.2C3.22875 36 0 39.2287 0 43.2V46.8C0 48.7912 1.60875 50.4 3.6 50.4H11.0137C11.7225 45.0675 14.94 40.5787 19.4738 38.0925Z" fill="#004E92"/>
</svg>
